# xmcd CD database file
#
# Track frame offsets:
#	150
#	10070
#	19930
#	31198
#	44652
#	53872
#	67738
#	74453
#	80465
#	89078
#	97928
#	112841
#	121573
#	135479
#	147972
#	158768
#	171121
#	182653
#	197317
#	214442
#	219881
#	233450
#	256672
#	267543
#	278645
#	285967
#	296974
#	301415
#	320484
#	329365
#
# Disc length: 4715 seconds
#
# Revision: 0
# Processed by: cddbd v1.5.2PL0 Copyright (c) Steve Scherf et al.
# Submitted via: CDex 1.70beta3
#
DISCID=a212691e
DTITLE=Eugene Chadbourne - Lost Eddie Chatterbox Session
DYEAR=1977
DGENRE=Jazz
TTITLE0=Hackensack
TTITLE1=Dewey Square
TTITLE2=Let's Call This
TTITLE3=Reflections
TTITLE4=Off Minor
TTITLE5=San Francisco Holiday
TTITLE6=5th of Beethoven
TTITLE7=Byhkorbycrc
TTITLE8=Raggity
TTITLE9=The Twinkler
TTITLE10=Back Home Blues
TTITLE11=Scrapple from the Apple
TTITLE12=I Let a Song Go Out of My Heart
TTITLE13=As Time Goes By
TTITLE14=Smoke Gets In Your Eyes
TTITLE15=Central Park West
TTITLE16=52nd Street Theme
TTITLE17=Brilliant Corners
TTITLE18=Ask Me Now
TTITLE19=Criss-Cross
TTITLE20=Little Rootie Tootie
TTITLE21=You Go to My Head
TTITLE22=Light Blue
TTITLE23=Dexter Will Be Back on Tuesday
TTITLE24=Shreeve's Heaven
TTITLE25=Kaiser Role
TTITLE26=Artificial Feet
TTITLE27=Ba-Lue Bolivar Ba-Lues-Are
TTITLE28=The Pick and the Pass
TTITLE29=A Christmas Card for Bob Wills
EXTD=YEAR: 1977
EXTT0=
EXTT1=
EXTT2=
EXTT3=
EXTT4=
EXTT5=
EXTT6=
EXTT7=
EXTT8=
EXTT9=
EXTT10=
EXTT11=
EXTT12=
EXTT13=
EXTT14=
EXTT15=
EXTT16=
EXTT17=
EXTT18=
EXTT19=
EXTT20=
EXTT21=
EXTT22=
EXTT23=
EXTT24=
EXTT25=
EXTT26=
EXTT27=
EXTT28=
EXTT29=
PLAYORDER=
